<?xml version="1.0" encoding="UTF-8"?>
<svg version="1.1" xmlns="http://www.w3.org/2000/svg" width="160" height="160">
<path d="M0 0 C1.17744704 0.96617645 2.34449458 1.94518669 3.5 2.9375 C4.45712891 3.68193359 4.45712891 3.68193359 5.43359375 4.44140625 C16.04684313 13.02717329 22.61576999 24.41717741 27.5 36.9375 C28.15355469 38.608125 28.15355469 38.608125 28.8203125 40.3125 C35.33695307 60.36370177 32.74567246 82.71273401 23.625 101.375 C20.74106319 106.98587037 17.6214759 112.1382217 13.5 116.9375 C13.00371094 117.57558594 12.50742188 118.21367187 11.99609375 118.87109375 C3.41032671 129.48434313 -7.97967741 136.05326999 -20.5 140.9375 C-21.61375 141.37320313 -22.7275 141.80890625 -23.875 142.2578125 C-43.92620177 148.77445307 -66.27523401 146.18317246 -84.9375 137.0625 C-90.54837037 134.17856319 -95.7007217 131.0589759 -100.5 126.9375 C-101.13808594 126.44121094 -101.77617188 125.94492188 -102.43359375 125.43359375 C-113.04684313 116.84782671 -119.61576999 105.45782259 -124.5 92.9375 C-124.93570313 91.82375 -125.37140625 90.71 -125.8203125 89.5625 C-132.33695307 69.51129823 -129.74567246 47.16226599 -120.625 28.5 C-117.74106319 22.88912963 -114.6214759 17.7367783 -110.5 12.9375 C-110.00371094 12.29941406 -109.50742188 11.66132813 -108.99609375 11.00390625 C-100.41032671 0.39065687 -89.02032259 -6.17826999 -76.5 -11.0625 C-75.38625 -11.49820312 -74.2725 -11.93390625 -73.125 -12.3828125 C-48.60488994 -20.35184827 -20.64116222 -15.06683661 0 0 Z " fill="#030717" transform="translate(128.5,15.0625)"/>
<path d="M0 0 C3.77138031 1.11427145 4.6630054 2.89465875 6.53125 6.25390625 C8.35814187 10.08920808 9.93697407 14.00855957 11.44140625 17.98046875 C12.84830111 21.02524122 14.59601305 23.256552 16.75 25.8125 C18.88492839 29.86886393 18.92820671 33.26822879 18.75 37.8125 C19.575 38.01875 20.4 38.225 21.25 38.4375 C24.29984433 39.63565313 25.74933424 40.49931693 28.1875 42.5 C34.02737193 47.12846992 40.97535008 49.83094834 47.75 52.8125 C47.56566406 53.88628906 47.38132812 54.96007813 47.19140625 56.06640625 C46.81406917 59.26876251 46.70509614 60.81563032 47.6875 63.75 C48.98851397 68.25959571 49.92134795 73.46980411 47.75 77.8125 C48.513125 77.895 49.27625 77.9775 50.0625 78.0625 C52.75 78.8125 52.75 78.8125 54.5625 80.6875 C55.75 82.8125 55.75 82.8125 55.75 85.8125 C60.7 86.4725 65.65 87.1325 70.75 87.8125 C68.29531015 100.73192029 64.47163134 117.09086866 54.75 126.8125 C50.93708992 127.24578524 49.20425444 127.10524175 45.9375 125 C42.77100506 121.83350506 42.59437266 119.23393415 42.5625 114.9375 C42.59878884 109.4578845 43.39084642 104.244512 44.3046875 98.8515625 C44.85395244 95.10307019 44.89819928 91.59158156 44.75 87.8125 C41.50864351 86.19182175 37.96002928 86.41552447 34.37890625 86.19140625 C31.75 85.8125 31.75 85.8125 28.75 83.8125 C25.58775982 83.82425135 25.58775982 83.82425135 22.75 85.8125 C21.29689861 89.15204258 20.70776858 92.61590267 20.0625 96.1875 C19.69243543 98.09288438 19.31382355 99.99663294 18.92578125 101.8984375 C18.77020752 102.7445459 18.61463379 103.5906543 18.4543457 104.46240234 C17.66694478 107.08961942 16.50633965 108.7282181 14.75 110.8125 C12.14752558 110.46081427 10.23841171 110.17445832 8.10546875 108.59375 C5.36471094 104.9920625 6.29189499 100.11163936 6.75 95.8125 C7.55417932 93.02098098 8.61864437 90.49946962 9.75 87.8125 C9.75 86.4925 9.75 85.1725 9.75 83.8125 C7.64349018 81.77751608 7.64349018 81.77751608 4.9375 79.9375 C0.9668301 76.92720429 -1.62820045 74.67789865 -3.25 69.8125 C-3.25 69.1525 -3.25 68.4925 -3.25 67.8125 C-6.45237128 70.34460752 -9.26172783 72.69545157 -11.75 75.9375 C-14.92843513 79.5927004 -17.57060994 81.4221572 -22.421875 82.12890625 C-26.39206354 82.33540935 -28.90032958 81.97084132 -32.5625 80.3125 C-35.45291116 77.62374543 -36.56073276 75.4772775 -38.12890625 71.9375 C-39.3654191 69.59372651 -40.80080476 67.97850375 -42.625 66.0625 C-48.49881375 59.56705154 -52.59837801 52.4010591 -52.6875 43.5 C-52.52061152 40.22641825 -52.16909663 37.0426433 -51.625 33.8125 C-51.20887203 30.48347624 -51.73334213 29.65623351 -53.25 26.8125 C-53.1875 24.25 -53.1875 24.25 -52.25 21.8125 C-49.51943851 19.66114852 -46.91512872 18.69702714 -43.625 17.5625 C-40.03589432 16.30831437 -37.3374415 14.51913987 -34.25 12.3125 C-28.92408727 8.76683665 -24.22722785 7.78811831 -18.03564453 6.8815918 C-12.94581641 6.09351695 -9.39595075 4.53247138 -5.0703125 1.8515625 C-3.25 0.8125 -3.25 0.8125 0 0 Z " fill="#344D8E" transform="translate(89.25,3.1875)"/>
<path d="M0 0 C0.99 0.66 1.98 1.32 3 2 C6.12521833 2.16699232 6.12521833 2.16699232 9 2 C10 4 10 4 9.4375 6.625 C8.98211933 10.13793659 9.55568508 12.53348811 10.515625 15.90625 C11.42597848 19.84132635 11.83562689 24.32874621 10 28 C10.763125 28.0825 11.52625 28.165 12.3125 28.25 C15 29 15 29 16.8125 30.875 C18 33 18 33 18 36 C22.95 36.66 27.9 37.32 33 38 C30.54531015 50.91942029 26.72163134 67.27836866 17 77 C13.18708992 77.43328524 11.45425444 77.29274175 8.1875 75.1875 C5.02100506 72.02100506 4.84437266 69.42143415 4.8125 65.125 C4.84878884 59.6453845 5.64084642 54.432012 6.5546875 49.0390625 C7.10395244 45.29057019 7.14819928 41.77908156 7 38 C3.75864351 36.37932175 0.21002928 36.60302447 -3.37109375 36.37890625 C-6 36 -6 36 -9 34 C-12.16224018 34.01175135 -12.16224018 34.01175135 -15 36 C-16.45310139 39.33954258 -17.04223142 42.80340267 -17.6875 46.375 C-18.05756457 48.28038438 -18.43617645 50.18413294 -18.82421875 52.0859375 C-18.97979248 52.9320459 -19.13536621 53.7781543 -19.2956543 54.64990234 C-20.08305522 57.27711942 -21.24366035 58.9157181 -23 61 C-25.60247442 60.64831427 -27.51158829 60.36195832 -29.64453125 58.78125 C-32.38528906 55.1795625 -31.45810501 50.29913936 -31 46 C-30.19582068 43.20848098 -29.13135563 40.68696962 -28 38 C-28 36.68 -28 35.36 -28 34 C-30.07912839 32.07106738 -30.07912839 32.07106738 -32.75 30.3125 C-37.81662445 26.50176688 -40.13616233 23.00879009 -42 17 C-36.02667877 13.5246131 -31.88490225 12.42625815 -25 13 C-27.97 12.505 -27.97 12.505 -31 12 C-29.62868535 10.32013956 -28.24372416 8.64999974 -26.80078125 7.03125 C-24.98260187 5.03369009 -24.98260187 5.03369009 -23.41796875 2.90625 C-16.99983509 -4.39564473 -8.57440626 -2.02014807 0 0 Z " fill="#374A88" transform="translate(127,53)"/>
<path d="M0 0 C2.64 0 5.28 0 8 0 C11.06796094 5.91678182 12.58682046 10.31024681 12 17 C11.67 17.66 11.34 18.32 11 19 C11.763125 19.0825 12.52625 19.165 13.3125 19.25 C16 20 16 20 17.8125 21.875 C19 24 19 24 19 27 C26.425 27.99 26.425 27.99 34 29 C31.54531015 41.91942029 27.72163134 58.27836866 18 68 C14.18708992 68.43328524 12.45425444 68.29274175 9.1875 66.1875 C6.02100506 63.02100506 5.84437266 60.42143415 5.8125 56.125 C5.84880056 50.64361604 6.6474258 45.42794522 7.546875 40.03125 C8.1140936 36.23675315 8.28872175 32.82556315 8 29 C7.34 28.34 6.68 27.68 6 27 C7.65 26.01 9.3 25.02 11 24 C10.34 23.67 9.68 23.34 9 23 C8.578125 21.1015625 8.578125 21.1015625 8.25 18.625 C7.13661186 12.34295636 4.23101256 7.42584034 1 2 C0.67 1.34 0.34 0.68 0 0 Z " fill="#3E5A92" transform="translate(126,62)"/>
<path d="M0 0 C0.01981934 0.77601562 0.03963867 1.55203125 0.06005859 2.3515625 C0.15589878 5.90135587 0.26533804 9.45060781 0.375 13 C0.4059375 14.22074219 0.436875 15.44148438 0.46875 16.69921875 C0.67707347 23.12252581 1.19309331 28.83483436 3 35 C3.31758237 39.20796636 3.37707238 40.43439143 1 44 C-2.84214944 44.59766769 -4.52198278 44.30805554 -7.8125 42.1875 C-10.97899494 39.02100506 -11.15562734 36.42143415 -11.1875 32.125 C-11.15119944 26.64361604 -10.3525742 21.42794522 -9.453125 16.03125 C-8.8859064 12.23675315 -8.71127825 8.82556315 -9 5 C-9.66 4.34 -10.32 3.68 -11 3 C-7.1107968 0.2546801 -4.70363714 -0.15635359 0 0 Z " fill="#2F447B" transform="translate(143,86)"/>
<path d="M0 0 C3 1 3 1 4.24609375 3.22265625 C4.63925781 4.15980469 5.03242187 5.09695313 5.4375 6.0625 C5.86804688 7.05765625 6.29859375 8.0528125 6.7421875 9.078125 C7.36480469 10.52445313 7.36480469 10.52445313 8 12 C10.31592714 16.96994583 12.92836166 21.44550177 16 26 C17.1577506 29.47325181 17.06866652 32.36067448 17 36 C17.825 36.20625 18.65 36.4125 19.5 36.625 C22.55974648 37.82704326 24.09298513 38.74712382 26.5625 40.75 C31.82127618 44.91191643 37.87531394 47.36713191 44 50 C44 50.33 44 50.66 44 51 C39.64525804 51.52784751 37.28697571 50.25419451 33.74609375 47.97265625 C30.13972734 45.96374074 26.57302449 45.81713777 22.5 45.75 C21.09234375 45.71132812 21.09234375 45.71132812 19.65625 45.671875 C16.59837454 46.04961256 15.26581405 46.9693176 13 49 C13.02320312 48.43152344 13.04640625 47.86304688 13.0703125 47.27734375 C13.08835937 46.50519531 13.10640625 45.73304687 13.125 44.9375 C13.14820312 44.18339844 13.17140625 43.42929687 13.1953125 42.65234375 C12.81575082 37.49789617 11.91296913 34.00755602 8.3984375 30.12890625 C7.40070313 29.28199219 6.40296875 28.43507813 5.375 27.5625 C4.859375 27.11712891 4.34375 26.67175781 3.8125 26.21289062 C2.55314837 25.12844895 1.27812323 24.06225292 0 23 C0.75 21.0625 0.75 21.0625 2 19 C4.125 18.25 4.125 18.25 6 18 C3.92341559 8.65636709 3.92341559 8.65636709 0 0 Z " fill="#9CBEE3" transform="translate(91,5)"/>
<path d="M0 0 C3.3 0.66 6.6 1.32 10 2 C11.43388197 6.3016459 10.2380988 9.59741326 9.25 13.9375 C9.07984375 14.74896484 8.9096875 15.56042969 8.734375 16.39648438 C7.80475781 20.56267319 7.02425805 23.81062441 4 27 C0.29801822 26.49973219 -1.6935723 25.99570494 -4 23 C-5.53910706 14.91622149 -2.91357148 7.4530199 0 0 Z " fill="#31467E" transform="translate(100,87)"/>
<path d="M0 0 C1.58367747 0.14204741 3.16693318 0.28880153 4.75 0.4375 C5.63171875 0.51871094 6.5134375 0.59992188 7.421875 0.68359375 C9.69350452 0.96238465 11.79851823 1.38790577 14 2 C12.51069002 12.04728522 8.71994822 21.05694022 4 30 C3.67 30 3.34 30 3 30 C0.560377 19.76229635 -0.40278241 10.5170962 0 0 Z " fill="#020513" transform="translate(145,93)"/>
<path d="M0 0 C3 1 3 1 4.31640625 3.29296875 C4.72761719 4.24816406 5.13882813 5.20335937 5.5625 6.1875 C6.20445313 7.6725 6.20445313 7.6725 6.859375 9.1875 C8.03682905 12.09081136 9.10695084 14.99610736 10 18 C8.02 18.99 8.02 18.99 6 20 C6.18415432 22.94091587 6.18415432 22.94091587 7 26 C8.83284443 27.12516085 8.83284443 27.12516085 11 28 C15.25618982 31.89137355 15.56936159 35.50028833 15.921875 40.98828125 C15.96054688 41.98408203 15.96054688 41.98408203 16 43 C17.98567708 42.93489583 19.97135417 42.86979167 21.95703125 42.8046875 C24 43 24 43 27 45 C25.98679687 45.05607422 25.98679687 45.05607422 24.953125 45.11328125 C24.06109375 45.17902344 23.1690625 45.24476562 22.25 45.3125 C21.36828125 45.37050781 20.4865625 45.42851563 19.578125 45.48828125 C16.67696226 46.0641181 15.20774393 47.07596148 13 49 C13.02320312 48.43152344 13.04640625 47.86304688 13.0703125 47.27734375 C13.08835937 46.50519531 13.10640625 45.73304687 13.125 44.9375 C13.14820312 44.18339844 13.17140625 43.42929687 13.1953125 42.65234375 C12.81575082 37.49789617 11.91296913 34.00755602 8.3984375 30.12890625 C7.40070313 29.28199219 6.40296875 28.43507813 5.375 27.5625 C4.859375 27.11712891 4.34375 26.67175781 3.8125 26.21289062 C2.55314837 25.12844895 1.27812323 24.06225292 0 23 C0.75 21.0625 0.75 21.0625 2 19 C4.125 18.25 4.125 18.25 6 18 C3.92341559 8.65636709 3.92341559 8.65636709 0 0 Z " fill="#5D88C5" transform="translate(91,5)"/>
<path d="M0 0 C3.32292685 0 5.39242888 0.47146252 7.921875 2.671875 C11.29510248 6.37963743 13.31753593 8.93026691 14 14 C12.02 14.99 12.02 14.99 10 16 C10.33 15.01 10.66 14.02 11 13 C7.7 12.34 4.4 11.68 1 11 C0.67 12.32 0.34 13.64 0 15 C-1.30459914 12.39080172 -1.1326594 10.41057385 -1.125 7.5 C-1.12757812 6.5203125 -1.13015625 5.540625 -1.1328125 4.53125 C-1 2 -1 2 0 0 Z " fill="#0F1E48" transform="translate(68,43)"/>
<path d="M0 0 C2.64 0 5.28 0 8 0 C11.06796094 5.91678182 12.58682046 10.31024681 12 17 C11.67 17.66 11.34 18.32 11 19 C11.78375 19.12375 12.5675 19.2475 13.375 19.375 C16 20 16 20 18 22 C17.67 22.99 17.34 23.98 17 25 C16.01 25 15.02 25 14 25 C14 24.34 14 23.68 14 23 C12.35 23 10.7 23 9 23 C8.92523438 22.40574219 8.85046875 21.81148437 8.7734375 21.19921875 C7.61292775 13.88345634 4.7638528 8.3206391 1 2 C0.67 1.34 0.34 0.68 0 0 Z " fill="#5173B0" transform="translate(126,62)"/>
<path d="M0 0 C0.33 0 0.66 0 1 0 C1.33 3.3 1.66 6.6 2 10 C2.99 10.33 3.98 10.66 5 11 C9 15.45714286 9 15.45714286 9 18 C9.825 18.721875 10.65 19.44375 11.5 20.1875 C14 23 14 23 14.3125 26.625 C14.1578125 28.295625 14.1578125 28.295625 14 30 C14 30.99 14 31.98 14 33 C6.54975271 26.97639581 0.73909661 18.03815532 -0.4375 8.42578125 C-0.4375 5.57906221 -0.32613122 2.82647056 0 0 Z " fill="#293B6A" transform="translate(37,41)"/>
<path d="M0 0 C3.77556505 -0.35957762 5.76995408 -0.11727831 9.1875 1.625 C12.23161918 4.19558953 13.50390177 6.34287098 15 10 C13.68 11.32 12.36 12.64 11 14 C10.63648437 13.46890625 10.27296875 12.9378125 9.8984375 12.390625 C6.66594062 7.84855246 3.8464625 4.76940714 -1 2 C-0.67 1.34 -0.34 0.68 0 0 Z " fill="#426195" transform="translate(71,41)"/>
<path d="M0 0 C5.79268293 4.26829268 5.79268293 4.26829268 7 8 C7.125 11.25 7.125 11.25 7 14 C5.32111559 13.02065076 3.65661761 12.01656081 2 11 C0.9171875 10.3503125 0.9171875 10.3503125 -0.1875 9.6875 C-2.61549337 7.42695445 -3.15788431 5.15793382 -4 2 C-2.68 1.34 -1.36 0.68 0 0 Z " fill="#A0C4E6" transform="translate(100,23)"/>
<path d="M0 0 C3.96090304 4.48902345 5.62605914 8.27557377 6.4375 14.1875 C6 17 6 17 3.625 18.9375 C2.75875 19.288125 1.8925 19.63875 1 20 C0.34 19.67 -0.32 19.34 -1 19 C-1.99 18.67 -2.98 18.34 -4 18 C-4 17.34 -4 16.68 -4 16 C-3.071875 15.87625 -3.071875 15.87625 -2.125 15.75 C0.10486788 15.17041652 0.10486788 15.17041652 1.375 13.3125 C2.25306391 10.06366353 1.14432589 8.11510937 0 5 C-0.125 2.125 -0.125 2.125 0 0 Z " fill="#3E57A2" transform="translate(91,6)"/>
<path d="M0 0 C-5.16678053 4.68239486 -10.50384902 7.17511743 -17.5 7.1875 C-18.655 7.125625 -19.81 7.06375 -21 7 C-16.14747114 0.60348468 -7.55664059 -0.49282439 0 0 Z " fill="#6491C2" transform="translate(76,10)"/>
<path d="M0 0 C2.875 0.25 2.875 0.25 6 1 C7.375 3.0625 7.375 3.0625 8 5 C7.34 5 6.68 5 6 5 C6 5.99 6 6.98 6 8 C6.99 8.33 7.98 8.66 9 9 C5.7 9.33 2.4 9.66 -1 10 C-1.125 2.25 -1.125 2.25 0 0 Z " fill="#0A153B" transform="translate(68,43)"/>
<path d="M0 0 C3 1 3 1 4.31640625 3.29296875 C4.72761719 4.24816406 5.13882813 5.20335937 5.5625 6.1875 C6.20445313 7.6725 6.20445313 7.6725 6.859375 9.1875 C8.03682905 12.09081136 9.10695084 14.99610736 10 18 C8.02 18.99 8.02 18.99 6 20 C6.33 21.32 6.66 22.64 7 24 C5.35 23.67 3.7 23.34 2 23 C2.33 21.35 2.66 19.7 3 18 C3.99 18 4.98 18 6 18 C3.92341559 8.65636709 3.92341559 8.65636709 0 0 Z " fill="#759DCF" transform="translate(91,5)"/>
<path d="M0 0 C3.3 0.33 6.6 0.66 10 1 C9.01 1.33 8.02 1.66 7 2 C6.7834375 2.8971875 6.7834375 2.8971875 6.5625 3.8125 C6 6 6 6 4 7.9375 C1.70080717 10.30854261 1.35863113 11.77231982 1 15 C0.67 15 0.34 15 0 15 C0 10.05 0 5.1 0 0 Z " fill="#071431" transform="translate(145,93)"/>
<path d="M0 0 C4.95 0.99 4.95 0.99 10 2 C10 3.32 10 4.64 10 6 C7 8 7 8 4.4375 7.75 C2 7 2 7 0 5 C0 3.35 0 1.7 0 0 Z " fill="#113D76" transform="translate(69,54)"/>
<path d="M0 0 C5.28 0.66 10.56 1.32 16 2 C15.67 3.32 15.34 4.64 15 6 C4.44191344 5.22095672 4.44191344 5.22095672 0 3 C0 2.01 0 1.02 0 0 Z " fill="#5D7FB4" transform="translate(144,89)"/>
<path d="M0 0 C1.8125 0.125 1.8125 0.125 4 1 C7 6.03571429 7 6.03571429 7 9 C7.66 9 8.32 9 9 9 C9 12.3 9 15.6 9 19 C10.98 19 12.96 19 15 19 C15.33 20.65 15.66 22.3 16 24 C12.98917284 23.06174223 10.46618786 21.98918856 8 20 C7.07371957 17.47220668 6.75143907 15.1366496 6.421875 12.46875 C5.82870947 8.99763317 4.10740566 6.76596993 2 4 C1.30570621 2.6808418 0.62469505 1.35350594 0 0 Z " fill="#0E2446" transform="translate(100,21)"/>
<path d="M0 0 C1.4540625 0.0309375 1.4540625 0.0309375 2.9375 0.0625 C1.60416667 5.39583333 0.27083333 10.72916667 -1.0625 16.0625 C-1.81904698 13.07413942 -2.48556901 10.09138768 -3.0625 7.0625 C-3.26875 5.99 -3.475 4.9175 -3.6875 3.8125 C-3.81125 2.905 -3.935 1.9975 -4.0625 1.0625 C-3.0625 0.0625 -3.0625 0.0625 0 0 Z " fill="#24356E" transform="translate(40.0625,24.9375)"/>
<path d="M0 0 C0.763125 0.33 1.52625 0.66 2.3125 1 C2.3125 1.33 2.3125 1.66 2.3125 2 C1.3225 1.85820313 0.3325 1.71640625 -0.6875 1.5703125 C-9.62731639 0.34406342 -9.62731639 0.34406342 -17.625 3.9375 C-19.40503419 5.54866577 -19.40503419 5.54866577 -20.6875 7 C-20.6875 4 -20.6875 4 -18.375 1.3125 C-13.07941045 -2.86359437 -6.11340448 -1.6578724 0 0 Z " fill="#3E559E" transform="translate(122.6875,51)"/>
<path d="M0 0 C1.7074998 1.28062485 3.37373596 2.61767557 5 4 C5 4.66 5 5.32 5 6 C5.66 6.474375 6.32 6.94875 7 7.4375 C7.66 7.953125 8.32 8.46875 9 9 C9 9.99 9 10.98 9 12 C4.59712222 10.65467623 2.45241369 8.90569587 0 5 C-0.25 2.1875 -0.25 2.1875 0 0 Z " fill="#0A1A40" transform="translate(41,53)"/>
<path d="M0 0 C2.41685712 4.22949995 3.34833144 7.12335991 3 12 C2.34 12 1.68 12 1 12 C0.16151196 10.54462432 -0.67063934 9.08559627 -1.5 7.625 C-2.19609375 6.40683594 -2.19609375 6.40683594 -2.90625 5.1640625 C-4 3 -4 3 -4 1 C-2 0 -2 0 0 0 Z " fill="#81A9D8" transform="translate(134,62)"/>
<path d="M0 0 C2.5654594 2.5654594 2.54046087 4.47686668 3 8 C5.97851562 7.90234375 5.97851562 7.90234375 8.95703125 7.8046875 C11 8 11 8 14 10 C13.32453125 10.03738281 12.6490625 10.07476562 11.953125 10.11328125 C11.06109375 10.17902344 10.1690625 10.24476562 9.25 10.3125 C8.36828125 10.37050781 7.4865625 10.42851563 6.578125 10.48828125 C3.53306796 10.89939724 3.53306796 10.89939724 0 14 C0 9.38 0 4.76 0 0 Z " fill="#5476BA" transform="translate(104,40)"/>
<path d="M0 0 C-6.93607661 2.54322809 -13.69354394 3.94915607 -21 5 C-17.25670841 0.16994633 -17.25670841 0.16994633 -13.8046875 -0.296875 C-12.2629003 -0.26634456 -10.721219 -0.19537892 -9.18359375 -0.078125 C-6.99249721 0.10506447 -6.99249721 0.10506447 -4.91015625 -0.546875 C-3 -1 -3 -1 0 0 Z " fill="#436CAB" transform="translate(70,16)"/>
<path d="M0 0 C2.49505962 2.49505962 2.35948376 3.67328888 2.625 7.125 C2.69976562 8.03507812 2.77453125 8.94515625 2.8515625 9.8828125 C2.90054688 10.58148438 2.94953125 11.28015625 3 12 C0.625 13.5625 0.625 13.5625 -2 15 C-2.66 14.67 -3.32 14.34 -4 14 C-3.34 13.175 -2.68 12.35 -2 11.5 C0.61234126 7.65507519 0.31334134 4.54344936 0 0 Z " fill="#4C6EB4" transform="translate(94,11)"/>
<path d="M0 0 C1.85772162 0.08984301 3.71247985 0.24611861 5.5625 0.4375 C7.08037109 0.59025391 7.08037109 0.59025391 8.62890625 0.74609375 C9.80259766 0.87177734 9.80259766 0.87177734 11 1 C11.66 2.65 12.32 4.3 13 6 C12.01 6 11.02 6 10 6 C10.33 5.34 10.66 4.68 11 4 C7.7 3.34 4.4 2.68 1 2 C0.67 3.32 0.34 4.64 0 6 C-0.38218767 4.34385343 -0.71395102 2.67542976 -1 1 C-0.67 0.67 -0.34 0.34 0 0 Z " fill="#0D295B" transform="translate(68,52)"/>
<path d="M0 0 C0.66 0.66 1.32 1.32 2 2 C0.71520959 3.50589388 -0.57804082 5.00457375 -1.875 6.5 C-2.95394531 7.75296875 -2.95394531 7.75296875 -4.0546875 9.03125 C-4.69664063 9.6809375 -5.33859375 10.330625 -6 11 C-6.66 11 -7.32 11 -8 11 C-7.43040847 7.37386801 -6.07625466 5.74482259 -3.4375 3.25 C-2.79683594 2.63640625 -2.15617187 2.0228125 -1.49609375 1.390625 C-1.00238281 0.93171875 -0.50867188 0.4728125 0 0 Z " fill="#405B97" transform="translate(83,69)"/>
<path d="M0 0 C1.6140712 2.8973901 2.3756433 5.33286311 2.75 8.625 C2.84796875 9.40101562 2.9459375 10.17703125 3.046875 10.9765625 C3 13 3 13 1 15 C-0.32286246 10.03926578 -0.08893197 5.08888488 0 0 Z " fill="#47649C" transform="translate(145,111)"/>
<path d="M0 0 C0.33 0 0.66 0 1 0 C1.06058594 0.68707031 1.12117187 1.37414062 1.18359375 2.08203125 C1.26738281 2.98308594 1.35117188 3.88414063 1.4375 4.8125 C1.51871094 5.70582031 1.59992188 6.59914063 1.68359375 7.51953125 C1.93489767 10.12743559 1.93489767 10.12743559 3 13 C2.5625 15.6875 2.5625 15.6875 2 18 C-0.45391569 14.31912647 -0.22802759 11.55644412 -0.125 7.3125 C-0.11597656 6.61060547 -0.10695312 5.90871094 -0.09765625 5.18554688 C-0.07413704 3.45688475 -0.03826713 1.72839855 0 0 Z " fill="#364F8B" transform="translate(143,98)"/>
<path d="M0 0 C2.43557572 0.90823027 4.76195517 1.86828071 7.125 2.9375 C7.78371094 3.22818359 8.44242188 3.51886719 9.12109375 3.81835938 C10.75049505 4.53860198 12.37566132 5.26841143 14 6 C14 6.33 14 6.66 14 7 C8.96808687 7.60992886 6.09689288 5.54356857 2 3 C0.67353844 2.3197633 -0.65608877 1.64507739 -2 1 C-1.34 0.67 -0.68 0.34 0 0 Z " fill="#729ACC" transform="translate(121,49)"/>
<path d="M0 0 C0.33 0.66 0.66 1.32 1 2 C0.67 2.66 0.34 3.32 0 4 C1.65 4.33 3.3 4.66 5 5 C5 5.99 5 6.98 5 8 C2.03 7.505 2.03 7.505 -1 7 C-1.04254356 5.00045254 -1.04080783 2.99958364 -1 1 C-0.67 0.67 -0.34 0.34 0 0 Z " fill="#769BC9" transform="translate(137,77)"/>
<path d="M0 0 C2.31 0.66 4.62 1.32 7 2 C6.67 2.99 6.34 3.98 6 5 C4.35 4.67 2.7 4.34 1 4 C0.67 2.68 0.34 1.36 0 0 Z " fill="#1975AA" transform="translate(70,55)"/>
<path d="M0 0 C0.33 0.99 0.66 1.98 1 3 C2.98 3 4.96 3 7 3 C7.33 4.65 7.66 6.3 8 8 C5.36 6.68 2.72 5.36 0 4 C0 2.68 0 1.36 0 0 Z " fill="#153054" transform="translate(108,37)"/>
<path d="M0 0 C0.66 0.33 1.32 0.66 2 1 C2.3125 3.25 2.3125 3.25 2 6 C-0.5 8.3125 -0.5 8.3125 -3 10 C-2.01 6.7 -1.02 3.4 0 0 Z " fill="#21315B" transform="translate(100,87)"/>
<path d="M0 0 C3.3 0.33 6.6 0.66 10 1 C6.38863788 2.80568106 5.455469 3.24851563 1.75 3.125 C-0.10625 3.063125 -0.10625 3.063125 -2 3 C-1.34 2.01 -0.68 1.02 0 0 Z " fill="#5884BE" transform="translate(57,14)"/>
<path d="M0 0 C-2.35968744 2.09749995 -3.54616994 2.96905704 -6.75 3.1875 C-7.86375 3.0946875 -7.86375 3.0946875 -9 3 C-9 2.34 -9 1.68 -9 1 C-6.04335481 -0.4783226 -3.25770263 -0.06032783 0 0 Z " fill="#82AFDB" transform="translate(76,10)"/>
<path d="M0 0 C2.97 0.495 2.97 0.495 6 1 C6 2.32 6 3.64 6 5 C3.83125748 4.49396008 2.00032373 4.00016187 0 3 C0 2.01 0 1.02 0 0 Z " fill="#13305F" transform="translate(45,63)"/>
<path d="M0 0 C-1.6186964 3.23739279 -4.84489543 4.42244771 -8 6 C-7.625 3.5625 -7.625 3.5625 -7 1 C-4.53721199 -0.231394 -2.7204945 -0.07159196 0 0 Z " fill="#2A4184" transform="translate(85,7)"/>
<path d="M0 0 C0.33 1.32 0.66 2.64 1 4 C-1.76264289 4.59732819 -4.16032769 5 -7 5 C-2.25 0 -2.25 0 0 0 Z " fill="#0B1735" transform="translate(86,71)"/>
</svg>
